<svg width="12" height="12" viewBox="0 0 12 12" fill="none" xmlns="http://www.w3.org/2000/svg">
<g clip-path="url(#clip0_590_140)">
<path d="M7.405 0.75L8.26325 2.077L9.84175 2.156L9.9215 3.73425L11.2493 4.59175L10.529 5.99875L11.25 7.405L9.923 8.26325L9.844 9.84175L8.26575 9.9215L7.40825 11.2493L6.00125 10.529L4.595 11.25L3.73675 9.923L2.15825 9.844L2.0785 8.26575L0.75075 7.40825L1.471 6.00125L0.75 4.595L2.077 3.73675L2.156 2.15825L3.73425 2.0785L4.59175 0.75075L5.99875 1.471L7.405 0.75Z" fill="#449B63"/>
<path d="M5.34886 7.81374L3.72461 6.18999L4.25511 5.65974L5.35686 6.76149L7.74886 4.44299L8.27086 4.98149L5.34886 7.81374Z" fill="white"/>
</g>
<defs>
<clipPath id="clip0_590_140">
<rect width="12" height="12" fill="white"/>
</clipPath>
</defs>
</svg>
