<svg width="20" height="19" viewBox="0 0 20 19" fill="none" xmlns="http://www.w3.org/2000/svg">
<g clip-path="url(#clip0_589_42)">
<path d="M18.9861 0.0196838L11.1973 5.8043L12.6379 2.39134L18.9861 0.0196838Z" fill="#E2761B" stroke="#E2761B" stroke-linecap="round" stroke-linejoin="round"/>
<path d="M1.00586 0.0196838L8.73207 5.85904L7.36192 2.39134L1.00586 0.0196838Z" fill="#E4761B" stroke="#E4761B" stroke-linecap="round" stroke-linejoin="round"/>
<path d="M16.1837 13.4285L14.1094 16.6067L18.5479 17.8276L19.8239 13.499L16.1837 13.4285Z" fill="#E4761B" stroke="#E4761B" stroke-linecap="round" stroke-linejoin="round"/>
<path d="M0.184082 13.499L1.45222 17.8276L5.89072 16.6067L3.8164 13.4285L0.184082 13.499Z" fill="#E4761B" stroke="#E4761B" stroke-linecap="round" stroke-linejoin="round"/>
<path d="M5.63986 8.05859L4.40283 9.92969L8.80982 10.1254L8.65347 5.38959L5.63986 8.05859Z" fill="#E4761B" stroke="#E4761B" stroke-linecap="round" stroke-linejoin="round"/>
<path d="M14.3519 8.05862L11.2993 5.33487L11.1973 10.1254L15.5968 9.92971L14.3519 8.05862Z" fill="#E4761B" stroke="#E4761B" stroke-linecap="round" stroke-linejoin="round"/>
<path d="M5.89062 16.6067L8.53639 15.315L6.25059 13.5301L5.89062 16.6067Z" fill="#E4761B" stroke="#E4761B" stroke-linecap="round" stroke-linejoin="round"/>
<path d="M11.4556 15.315L14.1092 16.6067L13.7414 13.5301L11.4556 15.315Z" fill="#E4761B" stroke="#E4761B" stroke-linecap="round" stroke-linejoin="round"/>
<path d="M14.1092 16.6067L11.4556 15.315L11.6671 17.0451L11.6434 17.7729L14.1092 16.6067Z" fill="#D7C1B3" stroke="#D7C1B3" stroke-linecap="round" stroke-linejoin="round"/>
<path d="M5.89062 16.6067L8.35641 17.7729L8.34066 17.0451L8.53639 15.315L5.89062 16.6067Z" fill="#D7C1B3" stroke="#D7C1B3" stroke-linecap="round" stroke-linejoin="round"/>
<path d="M8.39542 12.3876L6.18799 11.7378L7.7456 11.0253L8.39542 12.3876Z" fill="#233447" stroke="#233447" stroke-linecap="round" stroke-linejoin="round"/>
<path d="M11.5967 12.3876L12.2465 11.0253L13.812 11.7378L11.5967 12.3876Z" fill="#233447" stroke="#233447" stroke-linecap="round" stroke-linejoin="round"/>
<path d="M5.89072 16.6067L6.26644 13.4285L3.81641 13.499L5.89072 16.6067Z" fill="#CD6116" stroke="#CD6116" stroke-linecap="round" stroke-linejoin="round"/>
<path d="M13.7339 13.4285L14.1096 16.6067L16.1839 13.499L13.7339 13.4285Z" fill="#CD6116" stroke="#CD6116" stroke-linecap="round" stroke-linejoin="round"/>
<path d="M15.5968 9.92969L11.1973 10.1254L11.6045 12.3876L12.2543 11.0253L13.8198 11.7378L15.5968 9.92969Z" fill="#CD6116" stroke="#CD6116" stroke-linecap="round" stroke-linejoin="round"/>
<path d="M6.18768 11.7378L7.75317 11.0253L8.39511 12.3876L8.80982 10.1254L4.40283 9.92969L6.18768 11.7378Z" fill="#CD6116" stroke="#CD6116" stroke-linecap="round" stroke-linejoin="round"/>
<path d="M4.40283 9.92969L6.2503 13.5301L6.18768 11.7378L4.40283 9.92969Z" fill="#E4751F" stroke="#E4751F" stroke-linecap="round" stroke-linejoin="round"/>
<path d="M13.8201 11.7378L13.7417 13.5301L15.597 9.92969L13.8201 11.7378Z" fill="#E4751F" stroke="#E4751F" stroke-linecap="round" stroke-linejoin="round"/>
<path d="M8.81021 10.1254L8.39551 12.3876L8.91222 15.0566L9.02958 11.542L8.81021 10.1254Z" fill="#E4751F" stroke="#E4751F" stroke-linecap="round" stroke-linejoin="round"/>
<path d="M11.1974 10.1254L10.9863 11.5342L11.0801 15.0566L11.6046 12.3876L11.1974 10.1254Z" fill="#E4751F" stroke="#E4751F" stroke-linecap="round" stroke-linejoin="round"/>
<path d="M11.6047 12.3876L11.0801 15.0566L11.4558 15.315L13.7416 13.5301L13.82 11.7378L11.6047 12.3876Z" fill="#F6851B" stroke="#F6851B" stroke-linecap="round" stroke-linejoin="round"/>
<path d="M6.18799 11.7378L6.25061 13.5301L8.53641 15.315L8.91213 15.0566L8.39542 12.3876L6.18799 11.7378Z" fill="#F6851B" stroke="#F6851B" stroke-linecap="round" stroke-linejoin="round"/>
<path d="M11.6437 17.7729L11.6674 17.0451L11.4716 16.8726H8.52064L8.34066 17.0451L8.35641 17.7729L5.89062 16.6068L6.75154 17.3109L8.49701 18.5243H11.4953L13.2486 17.3109L14.1095 16.6068L11.6437 17.7729Z" fill="#C0AD9E" stroke="#C0AD9E" stroke-linecap="round" stroke-linejoin="round"/>
<path d="M11.456 15.315L11.0803 15.0566H8.91227L8.53656 15.315L8.34082 17.0451L8.5208 16.8726H11.4718L11.6675 17.0451L11.456 15.315Z" fill="#161616" stroke="#161616" stroke-linecap="round" stroke-linejoin="round"/>
<path d="M19.3149 6.18001L19.9801 2.98643L18.986 0.0196838L11.4556 5.60856L14.3518 8.0586L18.4457 9.25624L19.3539 8.19959L18.9624 7.918L19.5886 7.34655L19.1034 6.97083L19.7296 6.49311L19.3149 6.18001Z" fill="#763D16" stroke="#763D16" stroke-linecap="round" stroke-linejoin="round"/>
<path d="M0.0195312 2.98643L0.684715 6.18001L0.262132 6.49311L0.888326 6.97083L0.411001 7.34655L1.03719 7.918L0.645725 8.19959L1.54603 9.25624L5.63992 8.0586L8.53616 5.60856L1.00569 0.0196838L0.0195312 2.98643Z" fill="#763D16" stroke="#763D16" stroke-linecap="round" stroke-linejoin="round"/>
<path d="M18.446 9.25624L14.3521 8.05859L15.597 9.92969L13.7417 13.5301L16.1839 13.499H19.824L18.446 9.25624Z" fill="#F6851B" stroke="#F6851B" stroke-linecap="round" stroke-linejoin="round"/>
<path d="M5.64024 8.05859L1.54635 9.25624L0.184082 13.499H3.8164L6.25068 13.5301L4.40321 9.92969L5.64024 8.05859Z" fill="#F6851B" stroke="#F6851B" stroke-linecap="round" stroke-linejoin="round"/>
<path d="M11.1974 10.1254L11.4557 5.60858L12.6459 2.39136H7.36182L8.53623 5.60858L8.80994 10.1254L8.90407 11.5499L8.91194 15.0566H11.08L11.0957 11.5499L11.1974 10.1254Z" fill="#F6851B" stroke="#F6851B" stroke-linecap="round" stroke-linejoin="round"/>
</g>
<defs>
<clipPath id="clip0_589_42">
<rect width="20" height="18.544" fill="white"/>
</clipPath>
</defs>
</svg>
