<svg width="30" height="28" viewBox="0 0 30 28" fill="none" xmlns="http://www.w3.org/2000/svg">
<g clip-path="url(#clip0_598_831)">
<path d="M28.4791 0.029541L16.7959 8.70646L18.9569 3.58703L28.4791 0.029541Z" fill="#E2761B" stroke="#E2761B" stroke-linecap="round" stroke-linejoin="round"/>
<path d="M1.50879 0.029541L13.0981 8.78857L11.0429 3.58703L1.50879 0.029541Z" fill="#E4761B" stroke="#E4761B" stroke-linecap="round" stroke-linejoin="round"/>
<path d="M24.2755 20.1428L21.1641 24.9101L27.8218 26.7414L29.7358 20.2485L24.2755 20.1428Z" fill="#E4761B" stroke="#E4761B" stroke-linecap="round" stroke-linejoin="round"/>
<path d="M0.276367 20.2485L2.17858 26.7414L8.83632 24.9101L5.72484 20.1428L0.276367 20.2485Z" fill="#E4761B" stroke="#E4761B" stroke-linecap="round" stroke-linejoin="round"/>
<path d="M8.46003 12.0879L6.60449 14.8945L13.215 15.1882L12.9804 8.0844L8.46003 12.0879Z" fill="#E4761B" stroke="#E4761B" stroke-linecap="round" stroke-linejoin="round"/>
<path d="M21.5278 12.0879L16.9489 8.00228L16.7959 15.1882L23.3952 14.8945L21.5278 12.0879Z" fill="#E4761B" stroke="#E4761B" stroke-linecap="round" stroke-linejoin="round"/>
<path d="M8.83594 24.9101L12.8046 22.9724L9.37588 20.2952L8.83594 24.9101Z" fill="#E4761B" stroke="#E4761B" stroke-linecap="round" stroke-linejoin="round"/>
<path d="M17.1836 22.9724L21.1641 24.9101L20.6123 20.2952L17.1836 22.9724Z" fill="#E4761B" stroke="#E4761B" stroke-linecap="round" stroke-linejoin="round"/>
<path d="M21.1641 24.9101L17.1836 22.9725L17.5008 25.5676L17.4654 26.6593L21.1641 24.9101Z" fill="#D7C1B3" stroke="#D7C1B3" stroke-linecap="round" stroke-linejoin="round"/>
<path d="M8.83594 24.9101L12.5346 26.6593L12.511 25.5676L12.8046 22.9725L8.83594 24.9101Z" fill="#D7C1B3" stroke="#D7C1B3" stroke-linecap="round" stroke-linejoin="round"/>
<path d="M12.5934 18.5814L9.28223 17.6067L11.6186 16.538L12.5934 18.5814Z" fill="#233447" stroke="#233447" stroke-linecap="round" stroke-linejoin="round"/>
<path d="M17.3955 18.5814L18.3702 16.538L20.7185 17.6067L17.3955 18.5814Z" fill="#233447" stroke="#233447" stroke-linecap="round" stroke-linejoin="round"/>
<path d="M8.83608 24.9101L9.39966 20.1428L5.72461 20.2485L8.83608 24.9101Z" fill="#CD6116" stroke="#CD6116" stroke-linecap="round" stroke-linejoin="round"/>
<path d="M20.6006 20.1428L21.1642 24.9101L24.2756 20.2485L20.6006 20.1428Z" fill="#CD6116" stroke="#CD6116" stroke-linecap="round" stroke-linejoin="round"/>
<path d="M23.3952 14.8946L16.7959 15.1882L17.4067 18.5814L18.3815 16.538L20.7297 17.6067L23.3952 14.8946Z" fill="#CD6116" stroke="#CD6116" stroke-linecap="round" stroke-linejoin="round"/>
<path d="M9.28177 17.6067L11.63 16.538L12.5929 18.5814L13.215 15.1882L6.60449 14.8946L9.28177 17.6067Z" fill="#CD6116" stroke="#CD6116" stroke-linecap="round" stroke-linejoin="round"/>
<path d="M6.60449 14.8946L9.3757 20.2952L9.28177 17.6067L6.60449 14.8946Z" fill="#E4751F" stroke="#E4751F" stroke-linecap="round" stroke-linejoin="round"/>
<path d="M20.7299 17.6067L20.6123 20.2952L23.3953 14.8946L20.7299 17.6067Z" fill="#E4751F" stroke="#E4751F" stroke-linecap="round" stroke-linejoin="round"/>
<path d="M13.2148 15.1882L12.5928 18.5814L13.3678 22.5849L13.5439 17.3131L13.2148 15.1882Z" fill="#E4751F" stroke="#E4751F" stroke-linecap="round" stroke-linejoin="round"/>
<path d="M16.7961 15.1882L16.4795 17.3013L16.6201 22.5849L17.407 18.5814L16.7961 15.1882Z" fill="#E4751F" stroke="#E4751F" stroke-linecap="round" stroke-linejoin="round"/>
<path d="M17.407 18.5814L16.6201 22.5849L17.1837 22.9724L20.6124 20.2952L20.73 17.6067L17.407 18.5814Z" fill="#F6851B" stroke="#F6851B" stroke-linecap="round" stroke-linejoin="round"/>
<path d="M9.28223 17.6067L9.37616 20.2952L12.8049 22.9724L13.3684 22.5849L12.5934 18.5814L9.28223 17.6067Z" fill="#F6851B" stroke="#F6851B" stroke-linecap="round" stroke-linejoin="round"/>
<path d="M17.4656 26.6593L17.501 25.5676L17.2074 25.3089H12.781L12.511 25.5676L12.5346 26.6593L8.83594 24.9101L10.1273 25.9664L12.7455 27.7865H17.2429L19.8729 25.9664L21.1643 24.9101L17.4656 26.6593Z" fill="#C0AD9E" stroke="#C0AD9E" stroke-linecap="round" stroke-linejoin="round"/>
<path d="M17.1836 22.9725L16.62 22.5849H13.3679L12.8043 22.9725L12.5107 25.5676L12.7807 25.3089H17.2072L17.5008 25.5676L17.1836 22.9725Z" fill="#161616" stroke="#161616" stroke-linecap="round" stroke-linejoin="round"/>
<path d="M28.9726 9.27004L29.9704 4.47965L28.4793 0.029541L17.1836 8.41286L21.528 12.0879L27.6688 13.8844L29.0311 12.2994L28.4439 11.877L29.3831 11.0198L28.6553 10.4563L29.5946 9.73968L28.9726 9.27004Z" fill="#763D16" stroke="#763D16" stroke-linecap="round" stroke-linejoin="round"/>
<path d="M0.0292969 4.47965L1.02707 9.27004L0.393198 9.73968L1.33249 10.4563L0.616501 11.0198L1.55579 11.877L0.968588 12.2994L2.31904 13.8844L8.45988 12.0879L12.8042 8.41286L1.50853 0.029541L0.0292969 4.47965Z" fill="#763D16" stroke="#763D16" stroke-linecap="round" stroke-linejoin="round"/>
<path d="M27.6688 13.8844L21.528 12.0879L23.3953 14.8946L20.6123 20.2952L24.2755 20.2485H29.7358L27.6688 13.8844Z" fill="#F6851B" stroke="#F6851B" stroke-linecap="round" stroke-linejoin="round"/>
<path d="M8.4606 12.0879L2.31977 13.8844L0.276367 20.2485H5.72484L9.37626 20.2952L6.60506 14.8946L8.4606 12.0879Z" fill="#F6851B" stroke="#F6851B" stroke-linecap="round" stroke-linejoin="round"/>
<path d="M16.7963 15.1882L17.1838 8.41286L18.969 3.58703H11.043L12.8046 8.41286L13.2152 15.1882L13.3563 17.3249L13.3682 22.5849H16.6202L16.6439 17.3249L16.7963 15.1882Z" fill="#F6851B" stroke="#F6851B" stroke-linecap="round" stroke-linejoin="round"/>
</g>
<defs>
<clipPath id="clip0_598_831">
<rect width="30" height="27.816" fill="white"/>
</clipPath>
</defs>
</svg>
