<svg width="20" height="34" viewBox="0 0 20 34" fill="none" xmlns="http://www.w3.org/2000/svg">
<path d="M1.33315 32.625C0.889149 32.1803 0.667149 31.6527 0.667149 31.042C0.667149 30.4307 0.889149 29.9027 1.33315 29.458L13.8331 16.958L1.29215 4.417C0.875482 4.00034 0.660149 3.47934 0.646149 2.854C0.632149 2.22934 0.847482 1.69467 1.29215 1.25C1.73615 0.805338 2.27082 0.576338 2.89615 0.563005C3.52082 0.549005 4.04148 0.764005 4.45815 1.208L18.9171 15.667C19.1111 15.8337 19.2498 16.028 19.3331 16.25C19.4165 16.472 19.4581 16.708 19.4581 16.958C19.4581 17.1807 19.4165 17.403 19.3331 17.625C19.2498 17.847 19.1111 18.0553 18.9171 18.25L4.50015 32.667C4.05548 33.0837 3.52782 33.292 2.91715 33.292C2.30582 33.292 1.77782 33.0697 1.33315 32.625Z" fill="#D9D9D9"/>
</svg>
