<svg width="32" height="34" viewBox="0 0 32 34" fill="none" xmlns="http://www.w3.org/2000/svg">
<path d="M31.8215 22.4257C31.6505 22.2694 31.3996 22.2388 31.1953 22.3466C25.3452 25.4494 18.1658 23.3856 14.8532 17.6478C11.5406 11.9101 13.3421 4.66155 18.9546 1.14574C19.1508 1.02308 19.2487 0.78995 19.1988 0.564208C19.1493 0.338097 18.9631 0.167405 18.7337 0.138217C15.0971 -0.329153 11.4959 0.393886 8.31742 2.22938C4.47279 4.448 1.72251 8.03253 0.573477 12.3209C-0.575553 16.6092 0.0141098 21.0882 2.23421 24.9333C4.45395 28.7783 8.03811 31.5285 12.3265 32.6776C13.7585 33.0611 15.2116 33.251 16.6555 33.251C19.5354 33.251 22.3781 32.4958 24.9388 31.0172C28.1166 29.1824 30.5439 26.4248 31.9575 23.042C32.0469 22.8284 31.9922 22.582 31.8215 22.4257Z" fill="#303030"/>
</svg>
