<svg width="28" height="35" viewBox="0 0 28 35" fill="none" xmlns="http://www.w3.org/2000/svg">
<path d="M14 0C12.551 0 11.375 1.176 11.375 2.625V3.8418C6.84807 5.00867 3.5 9.1084 3.5 14V24.5L0.813477 26.5234H0.810059C0.561738 26.6816 0.35732 26.8998 0.215723 27.1579C0.0741274 27.416 -6.98357e-05 27.7056 4.93218e-08 28C4.93218e-08 28.4641 0.184375 28.9093 0.512564 29.2374C0.840752 29.5656 1.28587 29.75 1.75 29.75H14H26.25C26.7141 29.75 27.1593 29.5656 27.4874 29.2374C27.8156 28.9093 28 28.4641 28 28C28.0001 27.7056 27.9259 27.416 27.7843 27.1579C27.6427 26.8998 27.4383 26.6816 27.1899 26.5234L24.5 24.5V14C24.5 9.1084 21.1519 5.00867 16.625 3.8418V2.625C16.625 1.176 15.449 0 14 0ZM10.5 31.5C10.5 33.425 12.075 35 14 35C15.925 35 17.5 33.425 17.5 31.5H10.5Z" fill="#303030"/>
</svg>
