<svg width="12" height="16" viewBox="0 0 12 16" fill="none" xmlns="http://www.w3.org/2000/svg">
<path fill-rule="evenodd" clip-rule="evenodd" d="M2.42029 7.14714C2.04183 3.75 4.02384 1.36068 7.74076 0C5.46483 2.95703 9.68115 6.16016 9.91395 9.23047C10.4589 8.29948 10.7684 7.05729 10.8295 5.39583C13.6166 9.77344 11.3055 16.9284 5.17221 15.8997C4.60908 15.806 4.06676 15.6276 3.57256 15.362C1.33565 14.1667 0 11.5612 0 9.07292C0 7.48698 0.677577 6.07161 1.55413 4.94661C1.67118 6.04818 1.92088 6.86979 2.42029 7.14714Z" fill="#EC6F59"/>
<path fill-rule="evenodd" clip-rule="evenodd" d="M4.40496 12.0547C3.7729 10.4206 3.86004 7.78125 5.63006 6.85547C5.64306 9.88932 8.62778 10.276 8.07506 13.5143C8.58487 12.9362 8.84237 12.0117 8.88789 11.2812C9.69682 13.1354 9.06216 14.6185 7.90859 15.3737C4.40106 17.6706 1.38122 13.0143 3.38924 10.4622C3.45037 11.0326 4.14745 11.9128 4.40496 12.0547Z" fill="#FAD15C"/>
</svg>
