<svg width="16" height="22" viewBox="0 0 16 22" fill="none" xmlns="http://www.w3.org/2000/svg">
<path fill-rule="evenodd" clip-rule="evenodd" d="M3.22705 9.52951C2.72245 5 5.36512 1.81424 10.321 0C7.28644 3.94271 12.9082 8.21354 13.2186 12.3073C13.9452 11.066 14.3579 9.40972 14.4394 7.19444C18.1554 13.0312 15.074 22.5712 6.89628 21.1997C6.14544 21.0747 5.42235 20.8368 4.76341 20.4826C1.78086 18.8889 0 15.4149 0 12.0972C0 9.98264 0.903436 8.09549 2.07218 6.59549C2.22824 8.06424 2.56118 9.15972 3.22705 9.52951Z" fill="#EC6F59"/>
<path fill-rule="evenodd" clip-rule="evenodd" d="M5.8736 16.0729C5.03086 13.8941 5.14704 10.375 7.50707 9.14062C7.52441 13.1858 11.504 13.7014 10.7671 18.0191C11.4468 17.2483 11.7902 16.0156 11.8508 15.0417C12.9294 17.5139 12.0832 19.4913 10.5451 20.4983C5.8684 23.5608 1.84196 17.3524 4.51932 13.9497C4.60082 14.7101 5.53026 15.8837 5.8736 16.0729Z" fill="#FAD15C"/>
</svg>
