<svg width="20" height="34" viewBox="0 0 20 34" fill="none" xmlns="http://www.w3.org/2000/svg">
<path d="M18.6671 1.375C19.1111 1.81966 19.3331 2.34733 19.3331 2.958C19.3331 3.56933 19.1111 4.09733 18.6671 4.542L6.1671 17.042L18.7081 29.583C19.1248 29.9997 19.3401 30.5207 19.3541 31.146C19.3681 31.7707 19.1528 32.3053 18.7081 32.75C18.2641 33.1947 17.7294 33.4237 17.1041 33.437C16.4794 33.451 15.9588 33.236 15.5421 32.792L1.0831 18.333C0.889097 18.1663 0.750431 17.972 0.667097 17.75C0.583763 17.528 0.542097 17.292 0.542097 17.042C0.542097 16.8193 0.583763 16.597 0.667097 16.375C0.750431 16.153 0.889097 15.9447 1.0831 15.75L15.5001 1.333C15.9448 0.916328 16.4724 0.707996 17.0831 0.707996C17.6944 0.707996 18.2224 0.930328 18.6671 1.375Z" fill="#D9D9D9"/>
</svg>
