<svg width="29" height="29" viewBox="0 0 29 29" fill="none" xmlns="http://www.w3.org/2000/svg">
<path d="M12.1667 0.5C5.73716 0.5 0.5 5.73716 0.5 12.1667C0.5 18.5962 5.73716 23.8333 12.1667 23.8333C14.9626 23.8333 17.5303 22.8405 19.5426 21.1924L26.5085 28.1582C26.8011 28.463 27.2356 28.5858 27.6445 28.4792C28.0533 28.3726 28.3726 28.0533 28.4792 27.6445C28.5858 27.2356 28.463 26.8011 28.1582 26.5085L21.1924 19.5426C22.8405 17.5303 23.8333 14.9626 23.8333 12.1667C23.8333 5.73716 18.5962 0.5 12.1667 0.5ZM12.1667 2.83333C17.3351 2.83333 21.5 6.99819 21.5 12.1667C21.5 17.3351 17.3351 21.5 12.1667 21.5C6.99819 21.5 2.83333 17.3351 2.83333 12.1667C2.83333 6.99819 6.99819 2.83333 12.1667 2.83333Z" fill="#303030"/>
</svg>
