<svg width="33" height="33" viewBox="0 0 33 33" fill="none" xmlns="http://www.w3.org/2000/svg">
<path d="M2.14183 0C0.961839 0 0 0.961839 0 2.14183V18.1659C0 19.3459 0.961839 20.3077 2.14183 20.3077H5.07692V24.1154L8.88461 27.9231H12.6923V30.8582C12.6923 32.0382 13.6541 33 14.8341 33H30.8582C32.0382 33 33 32.0382 33 30.8582V14.8341C33 13.6541 32.0382 12.6923 30.8582 12.6923H20.3077V2.14183C20.3077 0.961839 19.3459 0 18.1659 0H2.14183ZM2.53846 2.53846H17.7692V12.6923H14.8341C14.3433 12.6923 13.8872 12.851 13.5252 13.1286C13.0047 12.8262 12.5287 12.5485 12.0974 12.256C13.1435 11.1653 14.1599 9.8415 14.9531 8.25C15.0622 8.05664 15.1167 7.83849 15.1118 7.61538H16.5V5.07692H11.4231V3.80769H8.88461V5.07692H3.80769V7.61538H6.50481C6.16767 7.73933 5.89498 7.99714 5.76112 8.32933C5.6223 8.66151 5.63717 9.03831 5.79086 9.36058C5.79086 9.36058 6.21229 10.253 7.21875 11.3834C7.48152 11.6759 7.78395 12.0032 8.13101 12.3353C6.33128 13.6492 4.79928 14.2392 4.79928 14.2392C4.32332 14.3433 3.94651 14.7151 3.83744 15.1961C3.72837 15.672 3.90189 16.1678 4.28365 16.4703C4.67037 16.7776 5.19096 16.8322 5.63221 16.619C5.63221 16.619 7.76412 15.8257 10.1538 13.9615C10.8133 14.4425 11.5222 14.9432 12.375 15.4291C12.4742 15.4836 12.5832 15.5233 12.6923 15.5481V17.7692H7.61538L6.98077 17.1346L6.34615 17.7692H2.53846V2.53846ZM7.3774 7.61538H12.375C11.7007 8.82512 10.9174 9.82166 10.0745 10.6695C9.69772 10.3274 9.38041 10.0051 9.1226 9.71755C8.29462 8.79041 8.09135 8.32933 8.09135 8.32933C7.96244 8.0021 7.70463 7.74429 7.3774 7.61538ZM21.5373 16.8966H24.1947L28.5577 28.7163H25.8209L24.9483 26.1779H20.744L19.8714 28.7163H17.1346L21.5373 16.8966ZM22.8065 20.149L21.3786 24.3137H24.3137L22.8858 20.149H22.8065ZM8.88461 20.3077H12.6923V24.1154H8.88461V20.3077Z" fill="#303030"/>
</svg>
